<svg width="1570" height="417" viewBox="0 0 1570 417" fill="none" xmlns="http://www.w3.org/2000/svg">
<path d="M307.19 391.04C265.394 412.842 221.468 421.16 175.331 412.936C98.257 399.197 43.5409 355.737 15.3772 282.938C-12.8323 210.02 -2.00771 140.73 46.0271 78.6535C78.3101 36.933 121.452 11.1753 173.553 3.06273C253.253 -9.3473 319.817 16.0026 371.207 78.2675C404.482 118.585 419.184 166.079 416.491 218.011C413.165 282.137 385.027 334.081 334.241 373.448C325.866 379.941 316.45 385.092 307.19 391.04ZM179.182 110.049C171.681 104.959 164.18 99.8681 156.418 94.6003C156.418 172.358 156.418 249.42 156.418 327.053C213.354 288.171 269.741 249.664 326.667 210.789C277.245 177.046 228.5 143.766 179.182 110.049Z" fill="url(#paint0_linear_46_78)"/>
<path d="M922.819 154.663C947.142 141.075 971.854 140.807 996.432 152.044C1011.11 158.756 1017.21 172.341 1014.17 186.489C1013.4 190.078 1011.49 191.636 1008 191.636C997.001 191.635 985.996 191.819 975.01 191.445C973.212 191.383 970.548 189.198 969.908 187.412C967.027 179.38 965.859 177.918 959.95 177.636C952.389 177.275 947.216 179.924 945.038 186.75C942.469 194.802 940.766 203.144 938.942 211.416C937.978 215.785 937.192 220.256 936.981 224.712C936.74 229.804 939.238 232.36 944.287 233.069C951.418 234.07 957.372 231.868 960.724 225.354C963.266 220.414 966.896 219.056 972.055 219.198C981.047 219.447 990.051 219.261 999.05 219.269C1006.64 219.276 1006.76 219.413 1005.96 226.691C1017.36 226.691 1028.75 226.539 1040.13 226.805C1042.75 226.866 1045.79 227.76 1047.86 229.308C1054.78 234.485 1062.18 234.037 1069.73 231.829C1071.32 231.365 1073.47 229.32 1073.49 227.975C1073.51 226.646 1071.37 224.441 1069.83 224.073C1062.72 222.375 1055.36 221.648 1048.35 219.677C1041.86 217.853 1035.19 215.707 1029.48 212.252C1019.17 206.013 1015.63 196.069 1017.45 184.264C1020.19 166.425 1030.39 154.449 1047.27 148.817C1068.01 141.894 1088.57 141.838 1107.78 153.984C1115.41 158.811 1121.54 165.105 1123.33 174.474C1124.55 180.889 1122.64 183.219 1116.23 183.252C1108.07 183.295 1099.9 183.214 1091.74 183.28C1086.39 183.324 1081.55 183.075 1076.77 179.404C1074.2 177.428 1069.21 178.168 1065.37 178.494C1064.03 178.608 1061.97 181.126 1061.94 182.588C1061.91 183.942 1063.93 186.232 1065.41 186.588C1072.35 188.252 1079.43 189.303 1086.42 190.752C1090.32 191.559 1094.23 192.451 1097.98 193.761C1115.26 199.797 1121.7 211.939 1117.44 229.774C1113.98 244.248 1105.61 254.759 1091.79 260.168C1070.24 268.603 1048.2 269.16 1026.33 261.574C1011.82 256.541 1005.97 248.518 1003.86 233.471C1003.59 233.584 1003.18 233.633 1003.08 233.833C992.183 257.511 971.587 264.868 947.747 266.433C936.517 267.17 925.429 265.833 914.902 261.562C897.47 254.49 889.614 241.253 892.87 222.714C895.28 208.988 898.373 195.315 902.246 181.932C905.513 170.644 912.622 161.534 922.819 154.663Z" fill="#1DB954"/>
<path d="M585.074 264.596C574.666 264.734 564.674 264.813 554.682 264.773C549.963 264.755 548.769 263.276 549.72 258.642C552.259 246.266 554.899 233.911 557.475 221.542C557.8 219.979 557.979 218.386 557.2 216.232C553.788 220.411 549.876 224.283 547.067 228.835C541.323 238.143 532.585 236.885 524.007 235.94C522.431 235.766 520.614 233.421 519.784 231.665C517.248 226.297 515.139 220.728 512.383 214.075C509.084 229.48 505.907 243.628 503.087 257.847C502.104 262.801 499.825 265.013 494.667 264.862C486.181 264.615 477.681 264.81 469.187 264.79C463.041 264.776 461.906 263.355 463.222 257.215C468.346 233.323 473.5 209.437 478.635 185.548C481.01 174.496 483.498 163.467 485.671 152.375C486.575 147.76 489.04 145.871 493.58 145.93C501.073 146.028 508.574 146.12 516.062 145.898C520.959 145.752 523.772 147.851 525.482 152.332C530.32 165.013 535.348 177.622 540.61 191.05C542.339 189.087 543.65 187.693 544.858 186.214C554.342 174.613 563.881 163.055 573.232 151.347C576.17 147.668 579.553 145.775 584.33 145.904C591.653 146.101 598.985 145.922 606.313 145.966C612.175 146.002 613.258 147.362 612.006 153.272C604.6 188.236 597.214 223.204 589.614 258.127C589.112 260.437 586.904 262.377 585.074 264.596Z" fill="#1DB954"/>
<path d="M1448.52 200.336C1442.63 206.615 1437.16 212.827 1431.12 218.423C1429.05 220.335 1428.3 221.522 1429.18 224.139C1432.84 235.008 1436.36 245.923 1439.87 256.837C1441.69 262.468 1440.13 264.744 1434.37 264.776C1423.71 264.837 1413.05 264.708 1402.39 264.834C1397.98 264.886 1395.71 263.028 1394.76 258.708C1392.51 248.512 1389.96 238.379 1387.49 228.049C1385.16 228.049 1383.06 228.049 1380.61 228.049C1378.41 238.138 1376.06 248.157 1374.09 258.249C1373.15 263.1 1370.59 264.929 1365.81 264.844C1356.32 264.674 1346.82 264.812 1337.32 264.787C1331.52 264.772 1330.54 263.578 1331.72 257.956C1339.13 222.815 1346.58 187.681 1353.96 152.532C1354.78 148.639 1356.64 145.962 1360.85 145.997C1380.66 146.162 1400.47 146.397 1420.28 146.727C1422.92 146.771 1425.58 147.339 1428.16 147.942C1451.46 153.379 1460.51 173.129 1450.41 196.413C1449.88 197.633 1449.28 198.823 1448.52 200.336ZM1387.87 193.402C1388.61 194.159 1389.3 195.488 1390.11 195.567C1392.9 195.84 1395.73 195.738 1398.55 195.664C1405.12 195.493 1409.41 191.208 1409.58 184.734C1409.7 180.259 1407.59 177.854 1403.18 177.725C1399.23 177.609 1395.27 177.7 1391.14 177.7C1390.04 182.847 1389 187.679 1387.87 193.402Z" fill="#1DB954"/>
<path d="M1451.77 236.48C1457.69 208.417 1463.59 180.783 1469.3 153.108C1470.36 147.942 1472.97 145.8 1478.23 145.904C1497.53 146.286 1516.84 146.407 1536.14 146.768C1538.94 146.821 1541.76 147.459 1544.49 148.154C1564.81 153.339 1573.71 168.729 1568.4 189.18C1565.24 201.368 1558.02 210.577 1547.92 217.761C1546.59 218.709 1545.23 219.61 1543.65 220.686C1547.43 232.354 1551.17 243.87 1554.9 255.391C1557.36 263.017 1556.12 264.785 1548.3 264.792C1538.47 264.801 1528.64 264.578 1518.82 264.88C1513.43 265.045 1511.01 262.739 1509.93 257.685C1507.83 247.786 1505.36 237.966 1503.01 227.999C1500.76 227.999 1498.79 227.999 1496.15 227.999C1494.12 237.277 1492 246.776 1489.98 256.295C1488.33 264.083 1487.55 264.791 1479.79 264.793C1470.63 264.797 1461.47 264.828 1452.31 264.781C1447.26 264.755 1446.07 263.377 1447.07 258.344C1448.49 251.17 1450.13 244.041 1451.77 236.48ZM1512.51 177.691C1510.58 177.691 1508.64 177.691 1506.58 177.691C1505.3 183.908 1504.14 189.545 1502.88 195.63C1507.42 195.63 1511.57 195.874 1515.68 195.57C1521.34 195.152 1525.24 190.099 1524.98 184.041C1524.76 178.948 1522.89 177.704 1515.44 177.691C1514.78 177.69 1514.12 177.691 1512.51 177.691Z" fill="#1DB954"/>
<path d="M638.959 145.954C646.285 145.954 653.117 145.89 659.947 145.976C664.905 146.039 666.132 147.571 665.097 152.47C660.594 173.786 656.028 195.088 651.481 216.394C651.411 216.719 651.277 217.03 651.208 217.354C649.4 225.788 650.85 230.157 655.976 231.728C663.623 234.073 671.736 230.914 674.274 223.744C676.424 217.671 677.55 211.22 678.926 204.892C682.707 187.504 686.421 170.102 690.07 152.686C691.033 148.085 693.419 145.811 698.325 145.902C707.986 146.081 717.652 145.905 727.315 145.977C732.332 146.014 733.742 147.641 732.721 152.451C727.712 176.038 723.076 199.719 717.42 223.152C710.49 251.864 693.243 264.913 661.825 266.467C650.909 267.006 640.193 265.785 629.97 261.721C612.138 254.632 604.221 239.951 608.149 220.863C612.741 198.548 617.584 176.284 622.364 154.008C623.922 146.748 624.985 145.967 632.466 145.954C634.466 145.951 636.465 145.954 638.959 145.954Z" fill="#1DB954"/>
<path d="M1201.93 179.167C1194.26 179.167 1187.08 179.492 1179.94 179.052C1175.32 178.767 1173.14 180.23 1172.9 184.82C1172.83 186.287 1172.35 187.733 1171.93 189.809C1176.6 189.809 1181.01 189.809 1185.43 189.809C1195.93 189.809 1206.43 189.773 1216.93 189.824C1222.23 189.85 1223.3 191.293 1222.18 196.6C1220.91 202.621 1219.47 208.611 1218.36 214.66C1217.51 219.243 1215.01 221.07 1210.4 221.021C1197.24 220.881 1184.07 220.973 1170.91 220.974C1169.1 220.974 1167.3 220.974 1165.31 220.974C1164.54 224.604 1163.85 227.819 1163.07 231.477C1164.89 231.575 1166.45 231.73 1168.02 231.732C1183.02 231.751 1198.02 231.721 1213.01 231.756C1218.46 231.769 1219.46 233.078 1218.33 238.432C1216.88 245.267 1215.34 252.083 1213.99 258.936C1213.18 263.045 1210.9 264.837 1206.71 264.827C1178.37 264.764 1150.04 264.812 1121.71 264.777C1116.68 264.771 1115.52 263.258 1116.57 258.312C1124.04 223.171 1131.57 188.042 1138.98 152.886C1140.01 148.006 1142.48 145.873 1147.57 145.897C1174.9 146.023 1202.23 145.939 1229.56 145.97C1235.25 145.976 1236.39 147.439 1235.24 152.899C1233.83 159.573 1232.32 166.226 1231.02 172.92C1230.19 177.215 1227.8 179.231 1223.43 179.185C1216.43 179.11 1209.43 179.167 1201.93 179.167Z" fill="#1DB954"/>
<path d="M1257.93 264.794C1247.94 264.794 1238.44 264.808 1228.94 264.79C1222.74 264.778 1221.7 263.677 1222.94 257.81C1230.39 222.677 1237.93 187.565 1245.36 152.426C1246.36 147.658 1249.01 145.886 1253.77 145.904C1281.09 146.012 1308.42 145.941 1335.74 145.969C1341.44 145.975 1342.71 147.53 1341.59 152.897C1340.3 159.083 1339 165.264 1337.65 171.436C1336.22 178.007 1334.84 179.147 1328.21 179.159C1314.55 179.184 1300.89 179.167 1287.23 179.168C1280.19 179.168 1280.19 179.168 1278.9 186.264C1278.72 187.233 1278.62 188.214 1278.39 189.809C1286.56 189.809 1294.48 189.809 1302.4 189.809C1309.4 189.809 1316.39 189.759 1323.39 189.828C1328.36 189.877 1329.6 191.478 1328.58 196.386C1327.29 202.572 1325.89 208.735 1324.61 214.921C1323.73 219.141 1321.35 221.072 1316.91 221.022C1304.08 220.879 1291.26 220.973 1278.43 220.974C1271.11 220.974 1271.1 220.972 1269.95 228.367C1269.8 229.338 1269.82 230.335 1269.73 231.743C1284.85 231.743 1299.82 231.743 1314.79 231.743C1326.09 231.744 1326.1 231.746 1323.71 242.889C1322.6 248.091 1321.29 253.256 1320.33 258.486C1319.5 263.054 1317.05 264.885 1312.41 264.85C1294.41 264.713 1276.42 264.794 1257.93 264.794Z" fill="#1DB954"/>
<path d="M775.058 233.306C778.49 233.019 781.607 233.137 784.38 232.217C786.305 231.579 787.755 229.511 789.418 228.081C787.842 226.616 786.478 224.291 784.651 223.839C777.89 222.164 770.884 221.46 764.147 219.711C758.407 218.221 752.561 216.444 747.378 213.651C735.547 207.276 730.885 196.058 733.381 182.862C736.458 166.592 745.737 155.293 761.05 149.562C780.865 142.147 800.847 141.554 819.907 151.977C825.303 154.929 830.097 159.458 834.208 164.111C836.778 167.021 838.228 171.386 838.981 175.327C840.146 181.429 838.253 183.223 832.135 183.251C822.477 183.295 812.807 183.511 803.165 183.115C800.109 182.99 797.187 180.878 794.092 180.154C790.036 179.204 785.871 178.297 781.748 178.279C780.278 178.273 777.801 180.804 777.626 182.381C777.479 183.707 779.781 186.263 781.393 186.656C788.319 188.345 795.414 189.326 802.401 190.788C806.617 191.67 810.869 192.632 814.894 194.127C830.796 200.033 837.054 211.913 833.488 228.52C830.017 244.683 820.513 255.794 805.086 261.226C785.402 268.157 765.245 268.739 745.249 262.633C739.666 260.929 734.238 257.803 729.567 254.244C722.555 248.902 719.275 241.328 720.193 232.3C720.563 228.662 722.294 226.6 726.332 226.651C736.655 226.78 746.983 226.588 757.304 226.798C759.296 226.838 761.275 228.085 763.236 228.837C767.032 230.291 770.81 231.789 775.058 233.306Z" fill="#1DB954"/>
<path d="M861.54 145.967C872.313 145.957 882.645 145.919 892.977 145.971C898.508 145.999 899.82 147.632 898.656 153.067C891.169 188.033 883.577 222.977 876.213 257.969C875.156 262.993 872.766 264.977 867.692 264.862C857.698 264.634 847.696 264.826 837.698 264.782C832.367 264.759 831.194 263.267 832.319 258.008C839.833 222.877 847.396 187.756 854.853 152.613C855.628 148.963 857.108 146.398 861.54 145.967Z" fill="#1DB954"/>
<path d="M179.468 110.268C228.5 143.767 277.244 177.047 326.666 210.789C269.74 249.664 213.353 288.171 156.417 327.053C156.417 249.42 156.417 172.358 156.417 94.6006C164.179 99.8683 171.68 104.959 179.468 110.268Z" fill="black"/>
<path d="M1387.92 192.957C1389 187.679 1390.04 182.847 1391.14 177.7C1395.27 177.7 1399.23 177.609 1403.18 177.725C1407.59 177.854 1409.7 180.259 1409.58 184.734C1409.41 191.209 1405.12 195.493 1398.55 195.664C1395.73 195.738 1392.9 195.84 1390.11 195.567C1389.3 195.488 1388.61 194.159 1387.92 192.957Z" fill="black"/>
<path d="M1512.98 177.691C1514.11 177.691 1514.78 177.69 1515.44 177.691C1522.89 177.704 1524.76 178.948 1524.98 184.04C1525.24 190.098 1521.34 195.152 1515.68 195.57C1511.57 195.874 1507.42 195.63 1502.88 195.63C1504.13 189.545 1505.3 183.908 1506.58 177.691C1508.64 177.691 1510.58 177.691 1512.98 177.691Z" fill="black"/>
<defs>
<linearGradient id="paint0_linear_46_78" x1="79.5" y1="82.5" x2="350" y2="258" gradientUnits="userSpaceOnUse">
<stop stop-color="#1ED760"/>
<stop offset="1" stop-color="#1DB954"/>
</linearGradient>
</defs>
</svg>
