<svg width="1108" height="650" viewBox="0 0 1108 650" fill="none" xmlns="http://www.w3.org/2000/svg">
<path d="M646.19 391.04C604.394 412.842 560.468 421.16 514.331 412.936C437.257 399.197 382.541 355.737 354.377 282.938C326.168 210.02 336.992 140.73 385.027 78.6535C417.31 36.933 460.452 11.1753 512.553 3.06273C592.253 -9.3473 658.817 16.0026 710.207 78.2675C743.482 118.585 758.184 166.079 755.491 218.011C752.165 282.137 724.027 334.081 673.241 373.448C664.866 379.941 655.45 385.092 646.19 391.04ZM518.182 110.049C510.681 104.959 503.18 99.8681 495.418 94.6003C495.418 172.358 495.418 249.42 495.418 327.053C552.354 288.171 608.741 249.664 665.667 210.789C616.245 177.046 567.5 143.766 518.182 110.049Z" fill="url(#paint0_linear_46_76)"/>
<path d="M518.468 110.268C567.5 143.767 616.244 177.047 665.666 210.789C608.74 249.664 552.353 288.171 495.417 327.053C495.417 249.42 495.417 172.358 495.417 94.6006C503.179 99.8683 510.68 104.959 518.468 110.268Z" fill="black"/>
<path d="M460.085 537.65C484.409 524.063 509.121 523.795 533.699 535.031C548.381 541.743 554.472 555.329 551.439 569.476C550.67 573.065 548.756 574.624 545.266 574.623C534.268 574.622 523.263 574.806 512.276 574.432C510.478 574.371 507.815 572.185 507.174 570.399C504.294 562.367 503.125 560.906 497.217 560.623C489.655 560.262 484.483 562.912 482.305 569.737C479.736 577.79 478.033 586.131 476.208 594.403C475.245 598.772 474.459 603.243 474.248 607.699C474.006 612.792 476.505 615.347 481.553 616.056C488.685 617.057 494.639 614.855 497.99 608.341C500.533 603.401 504.163 602.043 509.321 602.186C518.313 602.434 527.317 602.248 536.316 602.256C543.908 602.263 544.03 602.401 543.232 609.678C554.624 609.678 566.015 609.526 577.397 609.792C580.016 609.854 583.053 610.747 585.122 612.295C592.042 617.472 599.446 617.024 607.001 614.816C608.589 614.352 610.737 612.308 610.758 610.963C610.778 609.633 608.634 607.429 607.093 607.06C599.986 605.362 592.629 604.635 585.613 602.664C579.122 600.84 572.457 598.694 566.747 595.239C556.438 589.001 552.901 579.056 554.716 567.251C557.46 549.412 567.66 537.436 584.532 531.805C605.273 524.882 625.832 524.825 645.045 536.971C652.681 541.798 658.806 548.092 660.595 557.461C661.82 563.876 659.902 566.206 653.5 566.239C645.334 566.282 637.168 566.202 629.003 566.268C623.661 566.311 618.817 566.062 614.037 562.392C611.463 560.415 606.473 561.155 602.641 561.481C601.3 561.595 599.241 564.113 599.205 565.575C599.172 566.93 601.192 569.22 602.673 569.575C609.612 571.24 616.695 572.29 623.69 573.739C627.586 574.546 631.501 575.439 635.249 576.748C652.528 582.784 658.967 594.926 654.704 612.761C651.245 627.236 642.875 637.747 629.056 643.155C607.508 651.59 585.462 652.147 563.595 644.561C549.089 639.529 543.235 631.506 541.129 616.458C540.86 616.571 540.442 616.621 540.35 616.82C529.45 640.498 508.853 647.855 485.014 649.42C473.784 650.157 462.695 648.82 452.169 644.549C434.736 637.477 426.881 624.24 430.136 605.702C432.547 591.975 435.639 578.302 439.513 564.919C442.78 553.632 449.889 544.521 460.085 537.65Z" fill="#1DB954"/>
<path d="M122.34 647.584C111.932 647.721 101.94 647.8 91.9488 647.761C87.23 647.742 86.0354 646.263 86.9863 641.629C89.5255 629.253 92.1655 616.898 94.7411 604.53C95.0665 602.967 95.2457 601.373 94.4668 599.219C91.0543 603.399 87.143 607.271 84.3339 611.823C78.59 621.13 69.8518 619.872 61.2735 618.927C59.698 618.754 57.8803 616.409 57.0504 614.652C54.5147 609.285 52.4061 603.716 49.6498 597.063C46.3501 612.467 43.1734 626.615 40.3533 640.834C39.3709 645.788 37.0918 648 31.9338 647.849C23.4472 647.602 14.9479 647.797 6.45405 647.777C0.30714 647.763 -0.827626 646.342 0.488964 640.203C5.61274 616.31 10.7666 592.425 15.9016 568.535C18.2769 557.484 20.7644 546.454 22.9375 535.363C23.8417 530.747 26.3062 528.859 30.8468 528.918C38.3401 529.015 45.8406 529.108 53.3286 528.885C58.2255 528.74 61.039 530.839 62.7485 535.319C67.5869 548 72.6142 560.609 77.8766 574.037C79.6057 572.075 80.9163 570.68 82.1247 569.202C91.6084 557.6 101.147 546.042 110.498 534.334C113.437 530.655 116.819 528.763 121.597 528.891C128.92 529.088 136.252 528.909 143.58 528.953C149.442 528.989 150.524 530.35 149.273 536.259C141.867 571.223 134.48 606.192 126.881 641.114C126.378 643.424 124.171 645.364 122.34 647.584Z" fill="#1DB954"/>
<path d="M985.786 583.323C979.892 589.602 974.423 595.815 968.382 601.41C966.317 603.322 965.57 604.509 966.45 607.127C970.104 617.995 973.622 628.91 977.139 639.824C978.954 645.455 977.397 647.731 971.638 647.764C960.977 647.824 950.314 647.696 939.654 647.821C935.25 647.873 932.982 646.016 932.027 641.696C929.773 631.499 927.228 621.367 924.759 611.037C922.428 611.037 920.323 611.037 917.875 611.037C915.674 621.126 913.325 631.144 911.359 641.236C910.414 646.087 907.861 647.917 903.075 647.831C893.583 647.662 884.085 647.8 874.59 647.774C868.787 647.759 867.802 646.565 868.988 640.944C876.401 605.802 883.851 570.668 891.229 535.52C892.046 531.626 893.909 528.95 898.114 528.985C917.927 529.149 937.739 529.384 957.55 529.715C960.183 529.758 962.842 530.327 965.425 530.929C988.727 536.367 997.777 556.116 987.678 579.4C987.149 580.62 986.551 581.811 985.786 583.323ZM925.133 576.39C925.877 577.146 926.564 578.475 927.374 578.554C930.166 578.827 933.001 578.725 935.817 578.652C942.386 578.48 946.677 574.196 946.849 567.722C946.967 563.246 944.856 560.841 940.448 560.712C936.495 560.596 932.536 560.688 928.409 560.688C927.305 565.834 926.268 570.667 925.133 576.39Z" fill="#1DB954"/>
<path d="M989.034 619.467C994.952 591.405 1000.86 563.77 1006.56 536.095C1007.63 530.929 1010.24 528.787 1015.49 528.891C1034.8 529.274 1054.11 529.394 1073.41 529.756C1076.2 529.808 1079.03 530.446 1081.76 531.142C1102.08 536.326 1110.97 551.716 1105.67 572.167C1102.5 584.355 1095.28 593.564 1085.19 600.748C1083.86 601.696 1082.49 602.598 1080.92 603.673C1084.7 615.341 1088.44 626.857 1092.16 638.378C1094.63 646.004 1093.38 647.773 1085.56 647.78C1075.74 647.788 1065.91 647.566 1056.09 647.867C1050.7 648.033 1048.28 645.726 1047.2 640.672C1045.1 630.774 1042.62 620.953 1040.28 610.986C1038.03 610.986 1036.05 610.986 1033.41 610.986C1031.39 620.265 1029.27 629.763 1027.25 639.282C1025.59 647.07 1024.82 647.778 1017.06 647.781C1007.9 647.784 998.74 647.815 989.58 647.768C984.531 647.742 983.339 646.364 984.334 641.331C985.753 634.157 987.401 627.029 989.034 619.467ZM1049.78 560.678C1047.84 560.678 1045.91 560.678 1043.84 560.678C1042.56 566.895 1041.4 572.532 1040.15 578.617C1044.69 578.617 1048.84 578.861 1052.94 578.558C1058.61 578.139 1062.51 573.086 1062.25 567.028C1062.03 561.936 1060.16 560.691 1052.71 560.678C1052.05 560.677 1051.38 560.678 1049.78 560.678Z" fill="#1DB954"/>
<path d="M176.226 528.941C183.552 528.941 190.384 528.878 197.214 528.964C202.171 529.026 203.398 530.559 202.363 535.458C197.86 556.773 193.294 578.075 188.747 599.381C188.678 599.706 188.544 600.017 188.474 600.342C186.666 608.776 188.117 613.144 193.243 614.716C200.889 617.061 209.003 613.901 211.541 606.732C213.691 600.659 214.817 594.207 216.193 587.879C219.974 570.491 223.688 553.089 227.336 535.673C228.3 531.072 230.686 528.799 235.592 528.889C245.252 529.068 254.919 528.892 264.582 528.964C269.599 529.002 271.009 530.628 269.988 535.438C264.978 559.025 260.343 582.706 254.687 606.139C247.757 634.851 230.509 647.901 199.092 649.454C188.176 649.993 177.459 648.772 167.237 644.708C149.405 637.619 141.488 622.938 145.416 603.851C150.008 581.535 154.851 559.272 159.631 536.996C161.188 529.735 162.251 528.954 169.733 528.941C171.732 528.938 173.732 528.941 176.226 528.941Z" fill="#1DB954"/>
<path d="M739.197 562.155C731.531 562.155 724.345 562.479 717.206 562.039C712.584 561.754 710.404 563.217 710.169 567.807C710.094 569.274 709.613 570.72 709.192 572.796C713.862 572.796 718.28 572.796 722.698 572.796C733.197 572.796 743.696 572.761 754.194 572.812C759.494 572.838 760.57 574.28 759.449 579.588C758.178 585.609 756.739 591.598 755.624 597.647C754.779 602.23 752.277 604.057 747.669 604.008C734.505 603.869 721.338 603.96 708.173 603.961C706.371 603.961 704.569 603.961 702.573 603.961C701.802 607.592 701.119 610.806 700.341 614.465C702.157 614.562 703.721 614.717 705.286 614.719C720.284 614.738 735.283 614.708 750.282 614.743C755.729 614.756 756.727 616.066 755.592 621.42C754.144 628.254 752.603 635.07 751.253 641.924C750.444 646.032 748.171 647.824 743.972 647.815C715.641 647.751 687.311 647.799 658.98 647.765C653.943 647.758 652.787 646.246 653.839 641.299C661.312 606.158 668.841 571.029 676.244 535.874C677.272 530.993 679.748 528.86 684.835 528.884C712.165 529.01 739.496 528.927 766.827 528.957C772.512 528.963 773.652 530.426 772.504 535.887C771.1 542.561 769.588 549.213 768.29 555.907C767.457 560.202 765.068 562.219 760.695 562.172C753.696 562.097 746.696 562.154 739.197 562.155Z" fill="#1DB954"/>
<path d="M795.197 647.782C785.202 647.782 775.706 647.795 766.211 647.777C760.011 647.765 758.966 646.665 760.209 640.797C767.655 605.664 775.201 570.552 782.623 535.413C783.63 530.645 786.277 528.873 791.041 528.892C818.361 528.999 845.682 528.929 873.003 528.957C878.703 528.963 879.972 530.517 878.856 535.885C877.569 542.07 876.263 548.251 874.917 554.424C873.484 560.995 872.103 562.135 865.477 562.147C851.817 562.171 838.156 562.155 824.496 562.155C817.46 562.156 817.456 562.155 816.167 569.251C815.991 570.22 815.885 571.201 815.66 572.796C823.829 572.796 831.748 572.796 839.667 572.796C846.664 572.797 853.661 572.746 860.657 572.815C865.623 572.864 866.864 574.466 865.842 579.373C864.554 585.559 863.158 591.722 861.873 597.908C860.996 602.129 858.621 604.059 854.177 604.01C841.351 603.867 828.522 603.96 815.695 603.961C808.379 603.961 808.369 603.96 807.216 611.354C807.065 612.325 807.082 613.322 806.995 614.731C822.119 614.731 837.086 614.731 852.054 614.731C863.354 614.731 863.365 614.733 860.98 625.876C859.866 631.078 858.555 636.243 857.601 641.473C856.767 646.041 854.315 647.873 849.672 647.837C831.681 647.7 813.689 647.782 795.197 647.782Z" fill="#1DB954"/>
<path d="M312.325 616.293C315.757 616.006 318.874 616.125 321.646 615.205C323.571 614.566 325.022 612.498 326.684 611.068C325.108 609.603 323.745 607.279 321.918 606.826C315.156 605.152 308.151 604.448 301.413 602.698C295.674 601.208 289.828 599.431 284.645 596.638C272.814 590.263 268.151 579.045 270.647 565.849C273.724 549.58 283.003 538.281 298.317 532.55C318.132 525.134 338.113 524.541 357.173 534.965C362.57 537.916 367.364 542.445 371.474 547.098C374.045 550.008 375.495 554.373 376.248 558.314C377.413 564.416 375.52 566.21 369.402 566.238C359.743 566.282 350.074 566.498 340.431 566.103C337.376 565.977 334.454 563.865 331.359 563.141C327.303 562.191 323.137 561.284 319.015 561.266C317.544 561.26 315.067 563.792 314.893 565.369C314.746 566.694 317.047 569.25 318.659 569.643C325.585 571.332 332.68 572.313 339.667 573.775C343.883 574.657 348.136 575.619 352.161 577.114C368.062 583.02 374.32 594.901 370.755 611.507C367.284 627.671 357.78 638.781 342.353 644.213C322.669 651.144 302.511 651.726 282.516 645.621C276.933 643.916 271.505 640.79 266.833 637.231C259.822 631.889 256.542 624.315 257.46 615.288C257.83 611.649 259.561 609.587 263.598 609.638C273.922 609.767 284.25 609.576 294.571 609.785C296.562 609.826 298.541 611.072 300.503 611.824C304.298 613.278 308.077 614.776 312.325 616.293Z" fill="#1DB954"/>
<path d="M398.806 528.954C409.58 528.944 419.912 528.907 430.243 528.958C435.775 528.986 437.087 530.62 435.923 536.054C428.436 571.02 420.844 605.964 413.48 640.957C412.423 645.98 410.033 647.964 404.958 647.849C394.965 647.622 384.963 647.813 374.964 647.769C369.634 647.746 368.461 646.254 369.585 640.995C377.1 605.864 384.663 570.744 392.12 535.601C392.894 531.95 394.375 529.385 398.806 528.954Z" fill="#1DB954"/>
<path d="M925.183 575.944C926.269 570.667 927.305 565.834 928.409 560.688C932.536 560.688 936.495 560.596 940.448 560.712C944.857 560.841 946.967 563.246 946.849 567.722C946.678 574.196 942.387 578.48 935.817 578.652C933.001 578.725 930.166 578.827 927.375 578.555C926.565 578.476 925.877 577.146 925.183 575.944Z" fill="black"/>
<path d="M1050.25 560.678C1051.38 560.678 1052.05 560.677 1052.71 560.678C1060.16 560.691 1062.03 561.936 1062.25 567.028C1062.51 573.086 1058.61 578.139 1052.94 578.558C1048.84 578.861 1044.69 578.617 1040.15 578.617C1041.4 572.532 1042.56 566.895 1043.84 560.678C1045.91 560.678 1047.84 560.678 1050.25 560.678Z" fill="black"/>
<defs>
<linearGradient id="paint0_linear_46_76" x1="418.5" y1="82.5" x2="689" y2="258" gradientUnits="userSpaceOnUse">
<stop stop-color="#1ED760"/>
<stop offset="1" stop-color="#1DB954"/>
</linearGradient>
</defs>
</svg>
